<svg width="48" height="48" viewBox="0 0 48 48" fill="none" xmlns="http://www.w3.org/2000/svg">
<path d="M24.1829 26.6831C19.2329 26.6831 15.1079 25.1456 14.1704 23.1206C15.8954 28.4081 14.8454 33.3206 24.1829 33.3206C33.5204 33.3206 32.4704 28.4081 34.1954 23.1206C33.2579 25.1456 29.1329 26.6831 24.1829 26.6831Z" fill="#3E4347"/>
<path d="M19.5706 17.758C24.8581 16.2955 37.0081 18.508 34.3456 23.533C35.8081 25.183 36.3331 26.9455 29.3581 26.833C18.6331 29.3455 9.78312 24.133 13.6831 20.1955C12.7456 18.283 14.8081 17.308 19.5706 17.758Z" fill="#6F7980"/>
<path d="M24.1829 26.458C28.8704 26.458 32.7704 24.9955 33.6704 23.083C33.7454 22.8955 33.7829 22.708 33.8579 22.5205C33.8579 22.408 33.8954 22.333 33.8954 22.2205C33.8954 19.8955 29.5454 18.0205 24.2204 18.0205C18.8954 18.0205 14.5454 19.8955 14.5454 22.2205C14.5454 22.333 14.5454 22.408 14.5829 22.5205C14.6204 22.708 14.6954 22.8955 14.7704 23.083C15.5954 24.9955 19.4954 26.458 24.1829 26.458Z" fill="#3E4347"/>
<path d="M24.183 26.4581C28.8705 26.4581 32.7705 24.9956 33.6705 23.0831C33.6705 23.0081 33.708 22.9706 33.708 22.8956C32.9205 20.9081 28.9455 19.4081 24.1455 19.4081C19.3455 19.4081 15.3705 20.9081 14.583 22.8956C14.6205 22.9706 14.6205 23.0081 14.6205 23.0831C15.5955 24.9956 19.4955 26.4581 24.183 26.4581Z" fill="#FBBF67"/>
<path d="M25.4956 21.4705C23.6206 21.433 21.3331 22.933 19.7956 22.8205C17.2456 22.633 19.8706 23.8705 21.6706 23.8705C22.8706 23.8705 23.6956 22.783 24.3331 22.333C25.2331 21.7705 27.4456 21.508 25.4956 21.4705Z" fill="#D33B23"/>
<path d="M19.9456 20.2331C19.4581 18.8831 16.6456 21.0956 19.0456 21.5831C19.4206 21.6581 20.3581 21.4331 19.9456 20.2331ZM25.3831 24.4706C24.7831 22.8206 21.2956 25.5581 24.2956 26.1206C24.7456 26.1956 25.9081 25.9331 25.3831 24.4706ZM26.0206 19.7456C25.4581 18.3956 21.9706 20.6081 24.9331 21.0956C25.3456 21.1331 26.5081 20.9081 26.0206 19.7456ZM31.7581 21.2081C31.5331 19.7456 27.0706 20.5706 30.1456 22.1081C30.5956 22.3331 31.9456 22.5206 31.7581 21.2081Z" fill="#FF8736"/>
<path d="M17.6579 22.5206C17.2454 21.9581 16.6454 21.2081 16.4204 21.5831C16.0829 22.1081 15.9704 23.1581 16.2329 23.1956C18.1079 23.5706 17.9579 22.9706 17.6579 22.5206ZM27.9704 21.4706C27.2954 21.7706 26.8829 21.5456 26.5829 21.9956C25.8704 23.0081 28.3079 23.3456 28.7579 22.7456C29.0954 22.3331 28.4204 21.2831 27.9704 21.4706ZM28.5329 23.9831C28.0454 23.7581 28.1579 24.5081 27.4079 23.9081C26.8829 23.4956 25.7579 24.5456 26.5079 25.2581C27.3329 26.0456 27.5579 25.2956 27.8954 25.3706C28.6079 25.4831 29.8454 24.5456 28.5329 23.9831ZM20.2829 24.2081C19.8329 23.7581 19.1204 25.0331 19.3829 25.3706C19.9454 26.1206 21.9704 25.9706 22.4954 25.4081C23.1704 24.7331 21.3704 25.2581 20.2829 24.2081Z" fill="#89664C"/>
<path d="M18.5582 23.8331C18.5582 23.8331 18.5957 24.2831 18.6707 24.4706C18.1832 24.2831 18.1832 23.4206 18.1832 23.4206C18.1832 23.4206 17.8457 23.6081 17.8832 23.9456C17.3582 23.4956 16.9082 23.7206 16.9082 23.7206C16.9082 23.7206 17.5832 24.0956 17.6957 24.3581C17.3207 24.3956 17.0957 24.5081 16.9457 24.8081C16.9457 24.8081 17.6957 24.4331 18.2582 24.6956C18.0332 24.8831 18.1457 25.3331 18.1457 25.3331C19.0457 24.3956 19.6082 25.2206 20.0207 24.9956C19.6832 24.5456 19.1957 24.4706 19.1957 24.4706C19.0082 24.0956 18.5582 23.8331 18.5582 23.8331ZM22.6082 20.1581C22.1582 20.0831 21.7082 20.3081 21.7082 20.3081C21.7082 20.3081 22.1207 20.4956 22.3082 20.5706C21.8957 20.9081 21.1457 20.4581 21.1457 20.4581C21.1457 20.4581 21.1457 20.8331 21.4457 20.9831C20.8082 21.2081 20.7332 21.7331 20.7332 21.7331C20.7332 21.7331 21.4082 21.3581 21.6707 21.3956C21.4832 21.7331 21.4832 21.9956 21.7082 22.2581C21.7082 22.2581 21.7832 21.4331 22.3082 21.0956C22.3457 21.3956 22.7957 21.5081 22.7957 21.5081C22.4582 20.2706 23.4707 20.1956 23.4707 19.7456C22.9457 19.7456 22.6082 20.1581 22.6082 20.1581ZM31.3457 23.5331C31.5332 23.3456 32.3207 23.2331 32.3207 23.2331C32.3207 23.2331 31.9832 22.8581 31.3082 23.0456C31.4582 22.7456 31.2332 22.4456 31.2332 22.4456C31.2332 22.4456 30.8957 23.2331 30.3707 23.2331C30.5207 23.0456 30.7082 22.6706 30.7082 22.6706C30.7082 22.6706 30.1832 22.7831 29.8832 23.1206C29.8832 23.1206 29.3957 22.9706 28.9457 23.2706C29.2082 23.6456 30.0707 23.0831 30.5207 24.2831C30.5207 24.2831 30.7832 23.9081 30.6707 23.6456C31.2707 23.6081 31.8332 24.2456 31.8332 24.2456C31.8332 23.9081 31.6832 23.7206 31.3457 23.5331Z" fill="#699635"/>
<path opacity="0.6" d="M24.4832 14.3456C23.0957 12.9206 24.0332 10.8206 24.0332 10.8206C24.0332 10.8206 21.1082 13.5956 22.9457 15.5081C25.0832 17.7206 24.0332 19.0706 24.0332 19.0706C24.0332 19.0706 26.6582 16.5956 24.4832 14.3456ZM20.3582 15.6206C19.3082 14.6081 20.0207 13.0706 20.0207 13.0706C20.0207 13.0706 17.8457 15.0956 19.2332 16.4831C20.8457 18.0956 20.0207 19.0706 20.0207 19.0706C20.0207 19.0706 21.9707 17.2706 20.3582 15.6206ZM28.6082 15.6206C27.5582 14.6081 28.2707 13.0706 28.2707 13.0706C28.2707 13.0706 26.0957 15.0956 27.4832 16.4831C29.0957 18.0956 28.2707 19.0706 28.2707 19.0706C28.2707 19.0706 30.2207 17.2706 28.6082 15.6206Z" fill="#A6AEB0"/>
<rect x="1" y="1" width="46" height="46" rx="23" stroke="#EACDB2" stroke-width="2"/>
</svg>
